<svg viewBox="0 0 519.827 154.934"><defs><linearGradient id="a" x1="429.04" y1="104.497" x2="429.04" y2="-0.415" gradientUnits="userSpaceOnUse"><stop offset="0.001" stop-color="#ffaf21"></stop><stop offset="1" stop-color="#ff5100"></stop></linearGradient><linearGradient id="b" x1="481.383" y1="104.497" x2="481.383" y2="-0.415" xlink:href="#a"></linearGradient></defs><title>hStream</title><g><g><path d="M448.451,140.1h-5.258V138.02h12.731V140.1h-5.259v14.255H448.45Z" fill="#010101"></path><path d="M459.056,138.023h3.3l5.188,12.364h.092l5.145-12.364h3.3l0,16.33h-2.214V140.93h-.046L468.3,154.353h-1.476l-5.51-13.423h-.046l0,13.423h-2.214Z" fill="#010101"></path></g><g><path d="M9.483,65.81a1.551,1.551,0,0,1,1.756,1.755V90.286A147.593,147.593,0,0,1,26.108,89.7c20.957,0,27.162,2.578,27.162,27.406V152.59a1.554,1.554,0,0,1-1.757,1.758H43.787a1.554,1.554,0,0,1-1.757-1.758V118.043c0-17.92-3.512-18.621-14.751-18.621H11.239V152.59a1.553,1.553,0,0,1-1.756,1.758H1.756A1.553,1.553,0,0,1,0,152.59V67.565A1.551,1.551,0,0,1,1.756,65.81Z" fill="#010101"></path><path d="M118.374,66.862c1.171.117,1.639.586,1.639,1.523v5.389c0,1.169-.468,1.755-1.522,1.755H92.148c-10.3,0-15.336,3.162-15.336,10.423v1.992c0,5.855,1.639,9.017,8.78,11.947l25.523,10.54c10.771,4.451,13.464,11.126,13.464,20.376v3.748c0,17.8-14.284,20.379-30.909,20.379a237.5,237.5,0,0,1-28.566-1.64c-1.054-.235-1.405-.7-1.405-1.873V146.15a1.48,1.48,0,0,1,1.639-1.638H97.417c10.3,0,15.22-2.93,15.22-10.309v-2.224c0-5.972-1.639-9.719-8.9-12.649L75.992,108.087c-9.132-3.514-11.005-11.009-11.005-19.908V85.366c0-17.8,13.932-20.259,30.674-20.259C105.378,65.107,108.891,65.693,118.374,66.862Z" fill="#010101"></path><path d="M149.058,72.6c1.288-.352,1.99.234,1.99,1.521V90.4h12.294c1.287,0,1.873.586,1.873,1.758v5.5c0,1.172-.586,1.758-1.873,1.758H151.048v39.35c0,5.154,1.406,6.323,7.611,6.323h5.619c1.288,0,1.873.469,1.873,1.641v5.623c0,1.052-.585,1.638-1.756,1.872a31.863,31.863,0,0,1-6.556.7c-8.43,0-18.03-.117-18.03-13.352V99.422h-6.556a1.553,1.553,0,0,1-1.756-1.758v-5.5a1.553,1.553,0,0,1,1.756-1.758h6.556V76.35a1.643,1.643,0,0,1,1.522-1.875Z" fill="#010101"></path><path d="M208.071,90.989c1.17.352,1.756.82,1.756,1.99V97.9a1.514,1.514,0,0,1-1.873,1.641H197.768c-8.078,0-10.186,1.287-10.186,6.558V152.59a1.553,1.553,0,0,1-1.756,1.758h-7.61a1.553,1.553,0,0,1-1.756-1.758V103.4c0-13.235,11.708-13.7,18.5-13.7C197.768,89.7,205.729,90.169,208.071,90.989Z" fill="#010101"></path><path d="M268.02,120.619v3.4c0,2.341-.586,3.279-4.215,3.279h-37.23c.351,14.288,3.044,17.8,15.571,17.8h19.2a1.553,1.553,0,0,1,1.756,1.758v5.154a1.731,1.731,0,0,1-1.64,1.873,144.8,144.8,0,0,1-19.551,1.054c-22.011,0-26.693-6.44-26.693-32.557S219.9,89.7,241.912,89.7C262.869,89.7,267.786,95.909,268.02,120.619Zm-41.562-2.459H256.78c-.234-14.873-2.692-18.621-14.868-18.621C229.268,99.539,226.692,103.287,226.458,118.16Z" fill="#010101"></path><path d="M327.738,108.087v40.99a2.947,2.947,0,0,1-2.224,3.282c-4.1,1.521-14.284,2.575-25.991,2.575-15.454,0-22.6-3.161-22.6-18.855,0-14.054,7.376-18.036,20.723-18.036l18.849-.117v-7.847c0-7.261-4.215-10.54-15.22-10.54H283.718c-1.405,0-1.756-.351-1.756-1.758v-4.8c0-1.4.468-1.638,1.638-1.873A103.147,103.147,0,0,1,301.279,89.7C319.543,89.7,327.738,95.323,327.738,108.087ZM297.884,127.06c-6.439,0-9.835,2.109-9.835,8.784,0,7.73,3.864,9.485,13.464,9.485,3.63,0,10.537-.234,14.986-1.4V127.06Z" fill="#010101"></path><path d="M429.6,116.637l-.234,35.953a1.553,1.553,0,0,1-1.756,1.758h-7.493a1.553,1.553,0,0,1-1.756-1.758V118.043c0-17.92-3.512-18.621-14.517-18.621a81.581,81.581,0,0,0-13.7,1.052c1.405,3.982,1.873,9.136,1.873,16.632l-.234,35.484c0,1.407-.468,1.758-1.522,1.758H382.54a1.554,1.554,0,0,1-1.757-1.758V117.34c0-17.217-3.512-17.8-14.517-17.8H354.558V152.59a1.553,1.553,0,0,1-1.756,1.758h-7.727a1.553,1.553,0,0,1-1.756-1.758V93.447c0-1.4.586-1.638,1.756-1.872A117.051,117.051,0,0,1,364.627,89.7c7.376,0,15.1,1.523,19.435,3.513a63,63,0,0,1,18.849-3.63C423.165,89.583,429.6,92.4,429.6,116.637Z" fill="#010101"></path></g><g><path d="M423.439,27.8a6.368,6.368,0,0,0-6.227,4.985,93.331,93.331,0,0,0,0,39.123,6.368,6.368,0,0,0,6.227,4.984h19.5V27.8Z" fill="url(#a)"></path><path d="M517.752,32.782a6.368,6.368,0,0,0-6.228-4.985H492.03V8.3a6.369,6.369,0,0,0-4.986-6.228A91.407,91.407,0,0,0,467.484,0c-3.029,0-5.989.166-8.889.439V27.8l20.713,0A12.72,12.72,0,0,1,492.03,40.515V76.889H476.376V45.024a3.118,3.118,0,0,0-3.119-3.118H458.6V76.889H442.938v19.5a6.368,6.368,0,0,0,4.985,6.227,93.353,93.353,0,0,0,39.123,0,6.369,6.369,0,0,0,4.984-6.228v-19.5h19.5a6.369,6.369,0,0,0,6.228-4.985,93.326,93.326,0,0,0,0-39.122Z" fill="url(#b)"></path></g></g></svg>